<svg width="32" height="32" viewBox="0 0 32 32" fill="none" xmlns="http://www.w3.org/2000/svg">
<path fill-rule="evenodd" clip-rule="evenodd" d="M9.89922 6.20816C10.0489 5.99417 10.2936 5.8667 10.5548 5.8667H20.777C21.0382 5.8667 21.2829 5.99417 21.4325 6.20816L23.9881 9.86174C24.0821 9.99617 24.1326 10.1562 24.1326 10.3203V23.1078C24.1326 23.7872 23.8814 24.449 23.4186 24.9452C22.9541 25.4433 22.3116 25.7346 21.6289 25.7346H9.70292C8.27241 25.7346 7.19922 24.5009 7.19922 23.1078V10.3203C7.19922 10.1562 7.24965 9.99617 7.34367 9.86174L9.89922 6.20816ZM10.9715 7.4667L9.53507 9.52028H21.7967L20.3603 7.4667H10.9715ZM22.5326 11.1203H8.79922V23.1078C8.79922 23.7242 9.25936 24.1346 9.70292 24.1346H21.6289C21.8498 24.1346 22.074 24.041 22.2485 23.8539C22.4247 23.6649 22.5326 23.3974 22.5326 23.1078V11.1203ZM12.2585 13.1739C12.7003 13.1739 13.0585 13.532 13.0585 13.9739C13.0585 14.748 13.3458 15.4801 13.8415 16.0117C14.3355 16.5414 14.9931 16.8274 15.6659 16.8274C16.3387 16.8274 16.9963 16.5414 17.4902 16.0117C17.986 15.4801 18.2733 14.748 18.2733 13.9739C18.2733 13.532 18.6315 13.1739 19.0733 13.1739C19.5151 13.1739 19.8733 13.532 19.8733 13.9739C19.8733 15.1377 19.4426 16.2642 18.6603 17.103C17.8763 17.9437 16.8005 18.4274 15.6659 18.4274C14.5313 18.4274 13.4555 17.9437 12.6714 17.103C11.8891 16.2642 11.4585 15.1377 11.4585 13.9739C11.4585 13.532 11.8167 13.1739 12.2585 13.1739Z" fill="white"/>
</svg>
